/* XPM */
static char *video[] = {
/* columns rows colors chars-per-pixel */
"16 16 2 1 ",
"  c #808080",
". c None",
/* pixels */
"................",
"................",
"..            ..",
"..   ......   ..",
".. . ...... . ..",
"..   ......   ..",
"..   ......   ..",
".. .        . ..",
".. .        . ..",
"..   ......   ..",
"..   ......   ..",
".. . ...... . ..",
"..   ......   ..",
"..            ..",
"................",
"................"
};
