<?xml version="1.0" encoding="UTF-8" standalone="no"?>
<!-- Created with Inkscape (http://www.inkscape.org/) -->

<svg
   width="256"
   height="256"
   viewBox="0 0 256 256"
   version="1.1"
   id="svg1"
   xml:space="preserve"
   xmlns="http://www.w3.org/2000/svg"
   xmlns:svg="http://www.w3.org/2000/svg"
   xmlns:rdf="http://www.w3.org/1999/02/22-rdf-syntax-ns#"
   xmlns:cc="http://creativecommons.org/ns#"><defs
     id="defs1" /><g
     id="layer1"
     style="display:inline;opacity:1"><path
       style="display:inline;opacity:1;fill:#23c862;fill-opacity:1;fill-rule:nonzero;stroke:#105810;stroke-width:2;stroke-dasharray:none;stroke-opacity:1"
       d="m 215.69646,36.461838 c 3.76651,2.24771 22.23247,14.031894 21.71193,34.50973 0,46.011582 -87.86418,58.676462 -91.39605,54.994442 -1.08584,-1.97333 -1.12833,-11.97467 -1.0682,-21.9368 0.0554,-9.175321 0.0218,-18.295523 3.29734,-21.571042 8.62492,-8.624925 23.62099,-5.863777 23.62099,-18.409448 0,-12.866603 -21.67026,-14.921852 -30.00709,-16.257763 -0.56467,-3.270358 -0.54573,-7.256457 -0.50442,-14.792458 0.0364,-6.635381 -0.535,-13.42183 1.33807,-15.294897 4.02525,-4.025251 41.98799,0.432147 48.47866,10.618048 4.32847,6.792732 1.02298,16.809288 -1.88069,28.268743 -3.18024,12.55097 -4.92303,21.199934 -9.38268,25.659577 -5.81703,5.817033 -20.17475,6.151084 -20.17475,14.60077 0,9.92034 20.36548,10.18109 24.74503,10.18109 4.68773,0 25.65146,-1.76066 25.65146,-11.824079 0,-8.826433 -10.22593,-6.273849 -13.16619,-15.151363 -0.56795,-2.11963 2.10274,-11.641024 4.63322,-21.220479 2.45543,-9.29534 4.73856,-18.65514 6.40103,-20.728661 3.33908,-4.164672 5.09468,-3.108001 7.70234,-1.64541 z m -175.39292,0 c -3.76651,2.24771 -22.23247,14.031894 -21.71193,34.50973 0,46.011582 87.86418,58.676462 91.39605,54.994442 1.08584,-1.97333 1.12833,-11.97467 1.0682,-21.9368 -0.0554,-9.175321 -0.0218,-18.295523 -3.29734,-21.571042 C 99.1336,73.833243 84.13753,76.594391 84.13753,64.04872 c 0,-12.866603 21.67026,-14.921852 30.00709,-16.257763 0.56467,-3.270358 0.54573,-7.256457 0.50442,-14.792458 -0.0364,-6.635381 0.535,-13.42183 -1.33807,-15.294897 -4.02525,-4.025251 -42.987985,0.432147 -49.478655,10.618048 -4.32847,6.792732 -1.022985,16.809288 1.880685,28.268743 3.18024,12.55097 4.923035,21.199934 9.382685,25.659577 5.81703,5.817033 21.174745,6.151084 21.174745,14.60077 0,9.92034 -20.36548,10.18109 -24.74503,10.18109 -4.68773,0 -25.65146,-1.76066 -25.65146,-11.824079 0,-8.826433 10.225925,-6.273849 13.166185,-15.151363 0.56795,-2.11963 -2.10274,-11.641024 -4.63322,-21.220479 -2.45543,-9.29534 -4.73856,-18.65514 -6.40103,-20.728661 -3.33908,-4.164672 -5.094675,-3.108001 -7.702335,-1.64541 z"
       id="path1" /><path
       style="display:inline;opacity:1;fill:#23c862;fill-opacity:1;fill-rule:nonzero;stroke:#105810;stroke-width:2;stroke-dasharray:none;stroke-opacity:1"
       d="m 128,195.7 63,-34 17,5.29995 -80,44 -80,-44 L 65,161.7 Z"
       id="path10" /><path
       style="opacity:1;fill:#23c862;fill-opacity:1;fill-rule:nonzero;stroke:#105810;stroke-width:2;stroke-dasharray:none;stroke-opacity:1"
       d="m 128,222 h 87 v -9 h 15 v 21 H 128 26 v -21 h 15 v 9 z"
       id="path11" /><path
       style="opacity:1;fill:#23c862;fill-opacity:1;fill-rule:nonzero;stroke:#105810;stroke-width:2;stroke-dasharray:none;stroke-opacity:1"
       d="m 128,139 h 32 v 29.75 l -15.5,8.65 V 152.5 H 128 111.5 v 24.9 L 96,168.75 V 139 Z"
       id="path12" /></g><metadata
     id="metadata1"><rdf:RDF><cc:License
         rdf:about="http://artlibre.org/licence/lal"><cc:permits
           rdf:resource="http://creativecommons.org/ns#Reproduction" /><cc:permits
           rdf:resource="http://creativecommons.org/ns#Distribution" /><cc:permits
           rdf:resource="http://creativecommons.org/ns#DerivativeWorks" /><cc:requires
           rdf:resource="http://creativecommons.org/ns#ShareAlike" /><cc:requires
           rdf:resource="http://creativecommons.org/ns#Notice" /><cc:requires
           rdf:resource="http://creativecommons.org/ns#Attribution" /></cc:License><cc:Work
         rdf:about=""><cc:license
           rdf:resource="http://artlibre.org/licence/lal" /></cc:Work></rdf:RDF></metadata></svg>
