/* XPM */
static char *folder[] = {
/* columns rows colors chars-per-pixel */
"32 32 2 1 ",
"  c #808080",
". c None",
/* pixels */
"................................",
"................................",
"................................",
"................................",
"....           .................",
"....            ................",
"....  ........   ...............",
"....  .........   ..............",
"....  .......               ....",
"....  ......                ....",
"....  .....                 ....",
"....  ....                  ....",
"....                        ....",
"....                        ....",
"....  ....................  ....",
"....  ....................  ....",
"....  ....................  ....",
"....  ....................  ....",
"....  ....................  ....",
"....  ....................  ....",
"....  ....................  ....",
"....  ....................  ....",
"....  ....................  ....",
"....  ....................  ....",
"....  ....................  ....",
"....  ....................  ....",
"....                        ....",
"....                        ....",
"................................",
"................................",
"................................",
"................................"
};
